HIERARCHY
ROOT Hips
{
	OFFSET 0.000000 0.000000 0.000000 
	CHANNELS 6 Xposition Yposition Zposition Zrotation Yrotation Xrotation
	JOINT LeftUpLeg
	{
		OFFSET 1.363060 -1.794630 0.839290 
		CHANNELS 3 Zrotation Yrotation Xrotation
		JOINT LeftLeg
		{
			OFFSET 2.448110 -6.726130 0.000000 
			CHANNELS 3 Zrotation Yrotation Xrotation
			JOINT LeftFoot
			{
				OFFSET 2.562200 -7.039590 0.000000 
				CHANNELS 3 Zrotation Yrotation Xrotation
				JOINT LeftToeBase
				{
					OFFSET 0.157640 -0.433110 2.322550 
					CHANNELS 3 Zrotation Yrotation Xrotation
					End Site
					{
						OFFSET 0.000000 0.000000 0.000000 
					}
				}
			}
		}
	}
	JOINT RightUpLeg
	{
		OFFSET -1.305520 -1.794630 0.839290 
		CHANNELS 3 Zrotation Yrotation Xrotation
		JOINT RightLeg
		{
			OFFSET -2.542530 -6.985550 0.000000 
			CHANNELS 3 Zrotation Yrotation Xrotation
			JOINT RightFoot
			{
				OFFSET -2.568260 -7.056230 0.000000 
				CHANNELS 3 Zrotation Yrotation Xrotation
				JOINT RightToeBase
				{
					OFFSET -0.164730 -0.452590 2.363150 
					CHANNELS 3 Zrotation Yrotation Xrotation
					End Site
					{
						OFFSET 0.000000 0.000000 0.000000 
					}
				}
			}
		}
	}
	JOINT Spine
	{
		OFFSET 0.028270 2.035590 -0.193380 
		CHANNELS 3 Zrotation Yrotation Xrotation
		JOINT Spine1
		{
			OFFSET 0.056720 2.048850 -0.042750 
			CHANNELS 3 Zrotation Yrotation Xrotation
			JOINT Neck1
			{
				OFFSET -0.054170 1.746240 0.172020 
				CHANNELS 3 Zrotation Yrotation Xrotation
				JOINT Head
				{
					OFFSET 0.104070 1.761360 -0.123970 
					CHANNELS 3 Zrotation Yrotation Xrotation
					End Site
					{
						OFFSET 0.000000 0.000000 0.000000 
					}
				}
			}
			JOINT LeftArm
			{
				OFFSET 3.362410 1.200890 -0.311210 
				CHANNELS 3 Zrotation Yrotation Xrotation
				JOINT LeftForeArm
				{
					OFFSET 4.983000 -0.000000 -0.000000 
					CHANNELS 3 Zrotation Yrotation Xrotation
					JOINT LeftHand
					{
						OFFSET 3.483560 -0.000000 -0.000000 
						CHANNELS 3 Zrotation Yrotation Xrotation
						JOINT LeftHandIndex1
						{
							OFFSET 0.715260 -0.000000 -0.000000 
							CHANNELS 3 Zrotation Yrotation Xrotation
							End Site
							{
								OFFSET 0.000000 0.000000 0.000000 
							}
						}
					}
				}
			}
			JOINT RightArm
			{
				OFFSET -3.136600 1.374050 -0.404650 
				CHANNELS 3 Zrotation Yrotation Xrotation
				JOINT RightForeArm
				{
					OFFSET -5.241900 -0.000000 -0.000000 
					CHANNELS 3 Zrotation Yrotation Xrotation
					JOINT RightHand
					{
						OFFSET -3.444170 -0.000000 -0.000000 
						CHANNELS 3 Zrotation Yrotation Xrotation
						JOINT RightHandIndex1
						{
							OFFSET -0.622530 -0.000000 -0.000000 
							CHANNELS 3 Zrotation Yrotation Xrotation
							End Site
							{
								OFFSET 0.000000 0.000000 0.000000 
							}
						}
					}
				}
			}
		}
	}
}
MOTION
Frames: 16
Frame Time: 0.041667
39.116118 16.961363 3.381028 15.201732 -85.866165 2.973468 -31.630362 -0.506287 -4.356724 5.301332 19.181696 61.688465 -6.150618 26.106662 16.258073 11.078700 -17.973400 -63.036700 24.507320 15.977023 -33.091761 9.251374 -18.161028 28.751238 1.107576 -6.428667 -5.864680 -0.511900 4.586000 -12.731500 1.007600 0.047896 -4.535505 -1.536497 -0.848423 -14.592421 -0.894956 2.149384 10.557211 -3.162700 -0.032300 12.257200 -79.537606 5.846641 51.422664 93.455562 -54.930904 -61.059022 -2.208951 0.753527 0.827435 -7.125000 0.000000 0.000000 67.315698 -11.861948 50.357117 -26.063722 39.476398 -9.263973 1.681522 -1.167968 -8.159309 7.125000 0.000000 0.000000 
38.312051 16.929466 3.310581 -60.809068 -84.690283 79.229802 -25.895037 0.976478 -12.711399 9.013897 20.695105 71.461314 -5.889217 21.348147 10.775585 10.700300 -17.785300 -61.804400 31.438682 17.294029 -29.668280 8.296288 -19.012996 32.795693 -2.964608 7.726900 -10.511817 -1.058100 -6.540200 18.360100 1.133909 2.479898 -4.692945 -2.399185 0.101974 -15.955535 -1.332413 1.916530 10.360988 -3.155000 -0.284600 11.975100 -80.267004 11.106974 49.781825 86.178929 -55.905996 -54.269470 -2.228991 0.806205 3.986483 -7.125000 0.000000 0.000000 65.947271 -9.938702 48.461178 -28.272104 40.997260 -10.516769 1.744236 -1.167310 -6.024424 7.125000 0.000000 0.000000 
37.465876 16.978459 3.262851 -73.929978 -84.671587 92.801181 -25.149141 1.821813 -20.031400 11.718791 22.215349 80.488571 -4.624736 15.434599 1.816211 10.119000 -17.476200 -59.885400 34.267895 14.705135 -27.537239 9.416154 -17.321734 30.190092 -1.493442 2.753012 -8.358085 -0.002100 -0.293900 0.807500 1.138858 3.511727 -4.827082 -2.334719 0.549668 -16.597751 -1.679556 1.747744 10.110997 -3.329700 -0.440100 11.900100 -80.283423 17.276874 48.101019 83.686597 -56.241050 -52.507318 -2.222243 0.898958 5.708871 -7.125000 0.000000 0.000000 64.768802 -7.371654 46.218927 -32.259289 43.576561 -12.848442 1.770096 -1.217101 -7.811267 7.125000 0.000000 0.000000 
36.594688 17.085392 3.210761 -77.965266 -85.449965 96.637580 -25.862765 0.147856 -26.137793 13.220224 23.728956 85.701763 -2.653058 9.010072 -4.565649 9.135800 -16.894300 -56.558500 34.830466 12.017163 -24.094868 9.527030 -15.835827 28.868414 -1.652329 3.659507 -6.701779 -0.002600 0.330500 -0.908100 1.121033 3.793771 -4.863816 -1.989868 0.749993 -16.979217 -1.719679 1.729229 9.643938 -3.261500 -0.482400 11.603000 -80.453541 23.157503 45.992837 83.948810 -56.299453 -52.950013 -2.169555 0.877188 4.832906 -7.125000 0.000000 0.000000 63.759910 -4.693582 43.658789 -37.051193 46.377098 -15.988937 1.872914 -1.147487 -9.484293 7.125000 0.000000 0.000000 
35.709388 17.194735 3.150295 -79.962066 -86.473692 98.495972 -26.416139 -2.295980 -31.756664 14.180118 25.247823 88.356681 -0.964560 3.444461 -7.706431 9.405100 -17.061500 -57.480900 34.570456 9.743181 -20.780660 9.433782 -14.567964 27.961503 -1.933657 4.750325 -5.585433 -0.090000 1.935000 -5.325900 1.156800 4.015318 -4.894921 -0.966111 1.080059 -17.307629 -1.723197 1.113157 9.212567 -3.399800 -0.741200 11.307200 -81.002486 28.710151 44.163506 86.368209 -56.392371 -56.494022 -2.490886 -0.213676 0.714521 -7.125000 0.000000 0.000000 62.886411 -2.671731 40.534160 -43.130121 49.333685 -20.319244 1.974087 -1.016571 -10.871849 7.125000 0.000000 0.000000 
34.788865 17.313142 3.084093 -82.104153 -86.781872 100.111102 -25.942928 -4.754216 -36.242449 13.809977 26.683233 86.673743 0.354632 -0.021697 -10.559262 9.827900 -17.311900 -58.911700 35.027306 8.159595 -16.495766 9.500908 -13.180519 26.802128 -2.088436 5.549068 -5.100284 -0.439500 4.253800 -11.791800 1.211754 4.285433 -4.887073 -0.091857 1.393802 -17.477137 -1.525051 0.530850 8.957353 -3.407700 -0.960400 11.146700 -81.611690 33.951413 41.891340 88.159572 -56.240026 -57.484609 -2.407416 0.136149 -1.101955 -7.125000 0.000000 0.000000 62.339366 -1.035498 37.502299 -50.076901 51.906964 -25.458339 1.947065 -1.066740 -12.018906 7.125000 0.000000 0.000000 
33.839198 17.448071 3.008941 -81.859384 -86.648225 99.283604 -24.820466 -7.260379 -40.087880 13.039811 28.037046 83.667865 1.479459 -3.305517 -12.028629 9.994500 -17.406800 -59.470000 36.098172 7.501129 -11.222093 9.997071 -11.373565 24.474359 -1.867037 5.195098 -4.738017 -0.529600 4.663200 -12.950500 1.291390 4.514581 -4.872813 0.811104 1.679914 -17.549694 -1.165696 -0.015532 8.819859 -3.297100 -1.144800 11.024500 -82.295234 38.504317 39.440390 88.301403 -56.300040 -57.936417 -2.347336 0.273200 -2.929096 -7.125000 0.000000 0.000000 61.988945 0.040138 34.975926 -57.879356 54.024159 -31.706898 1.970812 -1.035180 -12.564642 7.125000 0.000000 0.000000 
32.857176 17.604226 2.930921 -80.871088 -86.451744 97.784484 -23.741408 -9.350962 -43.486784 11.434732 29.213479 78.752701 2.147947 -5.428065 -12.349429 10.153700 -17.495400 -60.000800 37.520135 7.946697 -5.190304 10.829593 -9.231801 21.156717 -1.294573 3.397438 -4.631622 -0.393500 4.027700 -11.154600 1.346454 4.762208 -4.925233 1.623788 1.965059 -17.888873 -0.734796 -0.540867 8.884514 -3.084200 -1.333500 11.063600 -82.941722 42.525477 37.093489 88.051099 -56.355723 -58.052249 -2.305880 0.338196 -3.586144 -7.125000 0.000000 0.000000 61.689065 0.251359 33.332145 -65.344253 55.307271 -38.002105 1.958902 -1.076545 -12.069067 7.125000 0.000000 0.000000 
31.844635 17.779887 2.874700 -73.067693 -86.764775 89.639106 -23.056119 -11.975113 -45.513110 8.624148 29.973323 71.527619 2.642276 -6.596645 -12.660775 10.407300 -17.632600 -60.841300 38.690661 8.625309 1.088114 11.734399 -6.900240 17.418301 -0.421534 -0.084495 -4.669148 -0.517900 4.612500 -12.806600 1.358597 4.727635 -4.932092 2.262875 2.108507 -17.599375 -0.253475 -1.112918 8.994847 -2.803300 -1.546000 11.086600 -83.629076 45.489301 34.517468 87.141173 -56.519480 -57.589768 -2.288496 0.326320 -3.508767 -7.125000 0.000000 0.000000 61.303104 0.596546 32.160095 -71.734105 55.913235 -43.664287 1.937486 -1.116560 -11.736020 7.125000 0.000000 0.000000 
30.800311 17.978150 2.847737 -56.328368 -87.321738 72.453054 -22.729105 -14.804173 -45.874443 3.826135 29.589783 60.571457 2.439953 -5.142764 -12.295081 10.802300 -17.837000 -62.137800 39.681530 8.775439 7.467609 12.589008 -4.530938 13.695897 0.701553 -4.965672 -4.420966 -0.809200 5.740600 -16.033600 1.336044 4.488598 -4.923855 2.650021 2.153718 -17.081858 0.173759 -1.728285 9.240182 -2.548900 -1.783100 11.174300 -84.026975 47.789930 32.609620 85.568378 -56.713873 -56.489322 -2.254506 0.408053 -3.060310 -7.125000 0.000000 0.000000 60.937395 0.710669 31.440434 -76.600721 56.138877 -48.180326 1.971671 -1.010076 -11.443841 7.125000 0.000000 0.000000 
29.740384 18.191443 2.817677 -43.053652 -87.284239 58.638851 -21.873452 -17.554465 -45.452799 -1.308093 27.947015 49.118538 1.984331 -2.855611 -12.022582 11.305700 -18.081400 -63.770300 41.235754 8.503360 13.530583 13.418513 -2.438562 10.334942 1.912693 -10.884491 -3.529028 -1.144100 6.792300 -19.101500 1.308956 4.249473 -4.966899 2.888549 2.187158 -16.907589 0.594282 -2.200961 9.621462 -2.284500 -1.954400 11.396900 -84.084798 49.705165 31.438775 84.972830 -56.817268 -56.358054 -2.329930 0.010575 -4.022340 -7.125000 0.000000 0.000000 60.799437 0.140606 31.403244 -80.715128 56.211498 -52.009766 1.991886 -0.960053 -10.849063 7.125000 0.000000 0.000000 
28.680801 18.405196 2.771668 -36.138313 -86.697708 51.244759 -20.241322 -20.173901 -42.874604 -6.700391 24.167242 36.170691 0.938733 0.936340 -10.976075 12.041000 -18.407900 -66.118800 42.889170 7.853853 17.712476 14.039275 -1.263273 8.425483 3.084921 -17.453753 -3.313144 -1.268600 7.139100 -20.128100 1.325884 4.105144 -4.982023 3.405611 2.268691 -16.566628 1.056039 -2.613529 9.894214 -1.964900 -2.109600 11.539100 -83.808863 50.725302 31.212632 85.174312 -56.835106 -56.597205 -2.301501 0.048762 -5.450760 -7.125000 0.000000 0.000000 60.643598 -1.015329 32.001970 -83.954453 56.228533 -54.998517 2.009701 -0.920078 -12.107894 7.125000 0.000000 0.000000 
27.621103 18.606098 2.719348 -32.030624 -85.857529 46.667604 -17.343039 -23.788640 -39.800136 -10.784132 19.156186 23.476457 -0.790168 6.299628 -10.218029 12.383900 -18.548200 -67.200500 44.569533 6.960018 21.365120 14.699898 -0.153117 6.497946 4.498868 -25.269231 -4.689635 -0.494600 4.508900 -12.512900 1.334038 3.694170 -5.094145 3.667253 2.159647 -16.794831 1.531240 -3.032494 10.402805 -1.697400 -2.237200 11.973400 -83.367942 51.420565 30.958111 85.494260 -56.754010 -56.998936 -2.265942 0.026922 -7.431141 -7.125000 0.000000 0.000000 61.022789 -2.765071 33.543342 -85.578189 56.265207 -56.269968 2.035086 -0.976759 -12.180823 7.125000 0.000000 0.000000 
26.561749 18.776824 2.669783 -30.994487 -84.832933 45.380092 -14.398622 -27.502232 -36.915787 -12.463829 14.664519 13.889621 -2.560427 11.282534 -9.821875 12.482600 -18.587300 -67.510400 44.667456 3.660780 21.890509 14.653081 -0.598469 7.448992 5.675702 -30.938012 -3.118894 -0.393500 4.027600 -11.154400 1.378098 3.287875 -5.157464 4.032479 2.027061 -16.611486 1.983913 -3.435994 10.727808 -1.449600 -2.354100 12.246900 -82.775043 51.512135 31.423542 86.830355 -56.675570 -58.324031 -2.270622 -0.070682 -8.621303 -7.125000 0.000000 0.000000 61.306546 -4.642732 35.432836 -86.562151 56.338654 -56.866700 2.072595 -0.948404 -13.000623 7.125000 0.000000 0.000000 
25.505837 18.906246 2.631690 -34.202985 -83.516627 48.461779 -10.993405 -31.308975 -34.313905 -12.627085 11.437298 7.227492 -4.311411 16.001726 -11.203244 12.636200 -18.646800 -67.991600 44.353125 -0.724670 20.411790 13.873308 -2.469054 11.187343 5.871914 -32.853709 1.005350 -0.339200 3.742700 -10.354000 1.461020 2.976178 -5.165656 4.323769 1.844359 -16.029382 2.320857 -3.710012 10.961947 -1.287100 -2.417400 12.496900 -82.016486 50.294733 32.149878 87.016332 -56.682773 -58.374524 -2.231221 0.137811 -8.411550 -7.125000 0.000000 0.000000 61.556382 -6.241413 37.340693 -86.265009 56.494385 -56.213330 2.111642 -0.870629 -14.187673 7.125000 0.000000 0.000000 
24.466333 18.977497 2.598646 -40.754092 -82.038181 54.920071 -8.938029 -32.206457 -32.719347 -12.252367 10.377997 5.277321 -4.474867 16.047222 -9.979286 12.592400 -18.630000 -67.854600 44.070497 -5.107140 16.969948 11.934881 -5.930795 18.700257 5.389074 -30.770901 3.592229 -0.179500 2.729000 -7.525100 1.561896 2.859814 -5.134036 4.518426 1.676187 -15.215430 2.565637 -3.981295 11.269407 -1.174500 -2.495300 12.891500 -81.377024 47.802051 32.931323 86.546139 -56.791117 -57.935682 -2.285992 0.000974 -7.348719 -7.125000 0.000000 0.000000 61.817982 -7.703697 39.203585 -83.062840 56.821986 -52.862081 2.106001 -0.997702 -13.773319 7.125000 0.000000 0.000000 
